<?xml version="1.0" standalone="no"?>
<!DOCTYPE svg PUBLIC "-//W3C//DTD SVG 20010904//EN" "http://www.w3.org/TR/2001/REC-SVG-20010904/DTD/svg10.dtd">
<svg
  version="1.0"
  xmlns="http://www.w3.org/2000/svg"
  viewBox="0 0 188.278706 308.140169"
  preserveAspectRatio="none"
>
  <g
    transform="translate(-65.206751,320.002575) scale(0.100000,-0.100000)"
    fill="#000000"
    stroke="none"
  >
    <path
      fill="greenyellow"
      d="M1519 3132 c-57 -60 -142 -165 -163 -199 -5 -9 27 -47 88 -108 52
-53 112 -122 132 -155 20 -33 40 -60 45 -60 4 0 28 28 52 63 25 34 77 93 116
132 39 38 71 73 71 78 0 37 -236 317 -266 317 -6 0 -40 -30 -75 -68z"
    />
    <path
      fill="skyblue"
      d="M1070 2949 c-155 -90 -327 -332 -386 -545 -29 -105 -36 -176 -30
-314 4 -106 11 -153 31 -217 101 -325 312 -553 611 -662 44 -16 114 -35 157
-41 l79 -13 -7 -36 c-4 -19 -17 -47 -29 -62 -26 -31 -29 -52 -46 -314 -6 -93
-15 -211 -21 -262 -13 -129 -11 -253 5 -282 7 -13 32 -36 56 -52 75 -51 204
-36 264 30 26 29 31 98 17 251 -7 69 -16 181 -21 250 -25 338 -28 359 -61 405
-18 24 -29 50 -26 58 3 8 35 19 78 27 135 24 287 87 387 159 121 89 263 256
314 371 23 53 65 169 79 220 21 75 18 352 -5 435 -24 90 -63 199 -87 242 -24
42 -52 86 -59 93 -3 3 -17 23 -32 46 -34 53 -132 152 -202 203 -39 29 -65 41
-89 41 -45 0 -77 -34 -77 -82 0 -32 9 -43 86 -114 128 -117 197 -215 255 -359
42 -105 58 -274 40 -413 -11 -88 -64 -236 -110 -307 -163 -255 -454 -395 -741
-356 -103 14 -150 30 -255 84 -86 45 -202 147 -265 232 -158 215 -195 520 -94
780 56 146 131 246 277 368 64 55 70 75 34 128 -30 45 -59 47 -127 8z"
    />
    <path
      fill="greenyellow"
      d="M1299 2813 c-66 -80 -142 -246 -170 -373 -28 -128 -30 -122 56 -159
111 -49 240 -146 299 -224 27 -36 53 -64 58 -61 4 3 8 74 8 157 0 84 7 191 15
239 18 110 8 149 -66 258 -47 69 -73 98 -128 144 -49 41 -53 42 -72 19z"
    />
    <path
      fill="greenyellow"
      d="M1803 2711 c-145 -144 -186 -263 -181 -521 3 -155 3 -155 21 -122 46
85 215 222 363 295 38 18 64 38 64 47 -3 95 -133 380 -174 380 -8 0 -50 -35
-93 -79z"
    />
    <path
      fill="greenyellow"
      d="M1993 2277 c-149 -76 -283 -205 -341 -327 -22 -45 -27 -73 -30 -158
-5 -113 5 -252 18 -252 25 0 148 96 231 180 136 139 199 265 219 439 9 81 5
161 -9 161 -3 0 -43 -19 -88 -43z"
    />
    <path
      fill="greenyellow"
      d="M1100 2204 c0 -48 21 -163 40 -214 40 -108 91 -183 199 -290 117
-116 205 -179 215 -153 10 24 6 195 -5 242 -37 162 -186 329 -366 412 -76 35
-83 36 -83 3z"
    />
  </g>
</svg>
