<svg
  width="24"
  height="24"
  viewBox="0 0 24 24"
  fill="none"
  xmlns="http://www.w3.org/2000/svg"
>
  <path
    d="M18.33 3H17.67C16.8744 3 16.1113 3.31607 15.5487 3.87868C14.9861 4.44129 14.67 5.20435 14.67 6V6.27C14.6695 6.79609 14.5306 7.31278 14.2673 7.76826C14.004 8.22373 13.6256 8.60196 13.17 8.865L12.525 9.24C12.0689 9.5033 11.5516 9.64192 11.025 9.64192C10.4984 9.64192 9.98106 9.5033 9.525 9.24L9.3 9.12C8.6116 8.72289 7.79376 8.61517 7.02601 8.82046C6.25825 9.02576 5.60333 9.5273 5.205 10.215L4.875 10.785C4.4779 11.4734 4.37017 12.2912 4.57546 13.059C4.78076 13.8268 5.28231 14.4817 5.97 14.88L6.195 15.03C6.64842 15.2918 7.02543 15.6676 7.28858 16.1202C7.55173 16.5729 7.69184 17.0865 7.695 17.61V18.375C7.6971 18.9036 7.55948 19.4234 7.29607 19.8818C7.03266 20.3401 6.65282 20.7207 6.195 20.985L5.97 21.12C5.28231 21.5183 4.78076 22.1732 4.57546 22.941C4.37017 23.7088 4.4779 24.5266 4.875 25.215L5.205 25.785C5.60333 26.4727 6.25825 26.9742 7.02601 27.1795C7.79376 27.3848 8.6116 27.2771 9.3 26.88L9.525 26.76C9.98106 26.4967 10.4984 26.3581 11.025 26.3581C11.5516 26.3581 12.0689 26.4967 12.525 26.76L13.17 27.135C13.6256 27.398 14.004 27.7763 14.2673 28.2317C14.5306 28.6872 14.6695 29.2039 14.67 29.73V30C14.67 30.7956 14.9861 31.5587 15.5487 32.1213C16.1113 32.6839 16.8744 33 17.67 33H18.33C19.1257 33 19.8887 32.6839 20.4513 32.1213C21.0139 31.5587 21.33 30.7956 21.33 30V29.73C21.3305 29.2039 21.4694 28.6872 21.7327 28.2317C21.996 27.7763 22.3744 27.398 22.83 27.135L23.475 26.76C23.9311 26.4967 24.4484 26.3581 24.975 26.3581C25.5016 26.3581 26.0189 26.4967 26.475 26.76L26.7 26.88C27.3884 27.2771 28.2062 27.3848 28.974 27.1795C29.7418 26.9742 30.3967 26.4727 30.795 25.785L31.125 25.2C31.5221 24.5116 31.6298 23.6938 31.4245 22.926C31.2192 22.1582 30.7177 21.5033 30.03 21.105L29.805 20.985C29.3472 20.7207 28.9673 20.3401 28.7039 19.8818C28.4405 19.4234 28.3029 18.9036 28.305 18.375V17.625C28.3029 17.0964 28.4405 16.5766 28.7039 16.1182C28.9673 15.6599 29.3472 15.2793 29.805 15.015L30.03 14.88C30.7177 14.4817 31.2192 13.8268 31.4245 13.059C31.6298 12.2912 31.5221 11.4734 31.125 10.785L30.795 10.215C30.3967 9.5273 29.7418 9.02576 28.974 8.82046C28.2062 8.61517 27.3884 8.72289 26.7 9.12L26.475 9.24C26.0189 9.5033 25.5016 9.64192 24.975 9.64192C24.4484 9.64192 23.9311 9.5033 23.475 9.24L22.83 8.865C22.3744 8.60196 21.996 8.22373 21.7327 7.76826C21.4694 7.31278 21.3305 6.79609 21.33 6.27V6C21.33 5.20435 21.0139 4.44129 20.4513 3.87868C19.8887 3.31607 19.1257 3 18.33 3Z"
    stroke="white"
    stroke-width="2"
    stroke-linecap="round"
    stroke-linejoin="round"
  />
  <path
    d="M18 22.5C20.4853 22.5 22.5 20.4853 22.5 18C22.5 15.5147 20.4853 13.5 18 13.5C15.5147 13.5 13.5 15.5147 13.5 18C13.5 20.4853 15.5147 22.5 18 22.5Z"
    stroke="white"
    stroke-width="2"
    stroke-linecap="round"
    stroke-linejoin="round"
  />
</svg>
